<svg width="137" height="137" viewBox="0 0 137 137" fill="none" xmlns="http://www.w3.org/2000/svg">
<path d="M68.5076 1C30.6685 1 0 10.543 0 22.2741V41.8463C0 52.6656 25.5293 61.4792 58.7294 62.9532H59.2297C61.6532 62.7708 63.9206 61.6848 65.5846 59.9094C67.2486 58.1339 68.1886 55.7979 68.219 53.3621C68.2495 50.9262 67.3682 48.5673 65.7491 46.7506C64.1299 44.9339 61.8904 43.7913 59.4723 43.5482C36.8234 42.5301 17.6461 38.1537 7.57995 32.0754C18.965 25.2221 41.9626 20.5266 68.5076 20.5266C95.0526 20.5266 118.035 25.2221 129.42 32.0754C122.977 35.9655 112.744 39.1566 100.419 41.1928L99.7521 41.2992C97.4797 41.8164 95.4733 43.1459 94.1083 45.0389C92.7433 46.932 92.1134 49.2588 92.3364 51.5838C92.5594 53.9088 93.6201 56.0726 95.32 57.6703C97.0198 59.2679 99.2423 60.1899 101.571 60.2635C102.13 60.2639 102.688 60.2182 103.239 60.1268C123.477 56.495 137 49.6265 137 41.8463V22.2741C137 10.543 106.332 1 68.5076 1Z" fill="#AD66B0"/>
<path d="M133.604 24.4774C133.604 27.1215 132.088 29.644 129.223 31.9689C117.777 25.1612 94.8857 20.5113 68.4924 20.5113C42.099 20.5113 19.2227 25.1612 7.85277 31.9689C5.01787 29.644 3.47156 27.1215 3.47156 24.4774C3.47156 13.0502 32.6089 3.76556 68.5682 3.76556C104.527 3.76556 133.604 13.0502 133.604 24.4774Z" fill="#8A528D"/>
<path d="M137 46.5872V66.1138C137 77.8905 106.332 87.3879 68.5076 87.3879C66.8703 87.3879 65.2482 87.3879 63.6413 87.3879H61.625C59.0417 87.2206 56.6305 86.0316 54.9219 84.0824C53.2132 82.1331 52.347 79.5834 52.5139 76.994C52.6807 74.4046 53.867 71.9877 55.8116 70.275C57.7562 68.5623 60.3 67.6941 62.8833 67.8613H63.141C64.9147 67.8613 66.6884 67.8613 68.5076 67.8613C95.0222 67.8613 118.035 63.3026 129.405 56.3581C134.256 53.4405 137 50.1126 137 46.5872ZM27.7729 63.7433L25.7718 63.3026C19.4057 61.8786 13.2783 59.5396 7.57995 56.3581C2.72878 53.4405 0 50.1126 0 46.5872V66.1138C0 72.1921 8.04991 77.6018 20.9965 81.4767L22.8763 82.0238C23.426 82.1278 23.9844 82.1786 24.5439 82.1757C26.7743 82.1763 28.9334 81.3881 30.6411 79.9499C32.3488 78.5117 33.4956 76.5158 33.8796 74.3135C34.2636 72.1112 33.8602 69.8436 32.7404 67.9101C31.6206 65.9766 29.8562 64.5011 27.7578 63.7433H27.7729Z" fill="#4298B4"/>
<path d="M137 70.9006V90.3968C137 98.1466 123.735 104.924 103.891 108.632L101.571 109.072H101.041C98.6205 109.071 96.2897 108.155 94.5127 106.508C92.7356 104.861 91.6427 102.604 91.4515 100.185C91.2603 97.7669 91.985 95.3651 93.4811 93.4581C94.9772 91.5512 97.135 90.2792 99.5247 89.8953C112.35 87.8591 122.795 84.5768 129.405 80.6411C134.256 77.7083 137 74.3956 137 70.9006ZM57.7895 91.9619C35.8683 90.8678 17.4036 86.5522 7.57995 80.6411C2.72878 77.7083 0 74.3956 0 70.9006V90.3968C0 100.897 24.3771 109.619 56.4555 111.397H57.0922H57.2893C59.8161 111.387 62.2394 110.39 64.0453 108.618C65.8512 106.847 66.8977 104.44 66.9627 101.908C67.0278 99.3758 66.1064 96.9179 64.3939 95.0555C62.6814 93.1931 60.3125 92.0726 57.7895 91.9315V91.9619Z" fill="#33A474"/>
<path d="M137 95.2138V114.695C137 126.456 106.332 135.969 68.5076 135.969C66.7187 135.969 64.945 135.969 63.1865 135.969H60.867C58.4505 135.583 56.2678 134.299 54.7535 132.372C53.2392 130.445 52.5045 128.018 52.6957 125.573C52.8869 123.127 53.9899 120.844 55.7851 119.177C57.5804 117.511 59.9361 116.583 62.383 116.579H62.6255C64.5812 116.579 66.5671 116.579 68.5682 116.579C95.0829 116.579 118.096 111.884 129.466 105.015C134.256 102.006 137 98.6784 137 95.2138ZM25.8476 112.005V111.868C19.4575 110.444 13.3052 108.105 7.57995 104.924C2.72878 102.006 0 98.6784 0 95.2138V114.695C0 120.773 8.0499 126.168 20.9661 130.043C22.1551 130.393 23.4021 130.503 24.6338 130.364C25.8655 130.226 27.0572 129.842 28.139 129.235C29.2207 128.629 30.1708 127.812 30.9333 126.833C31.6959 125.853 32.2557 124.731 32.5797 123.532C32.9038 122.333 32.9857 121.081 32.8206 119.849C32.6554 118.618 32.2466 117.432 31.6182 116.361C30.9897 115.29 30.1542 114.356 29.1606 113.613C28.1671 112.871 27.0356 112.334 25.8325 112.036L25.8476 112.005Z" fill="#E4AE3A"/>
</svg>
