<svg xmlns="http://www.w3.org/2000/svg" version="1.1" xmlns:xlink="http://www.w3.org/1999/xlink" xmlns:svgjs="http://svgjs.dev/svgjs" width="1000" height="1000"><g clip-path="url(#SvgjsClipPath1117)"><rect width="1000" height="1000" fill="#ffffff"></rect><g transform="matrix(5.109489051094891,0,0,5.109489051094891,149.99999999999994,152.5547445255474)"><svg xmlns="http://www.w3.org/2000/svg" version="1.1" xmlns:xlink="http://www.w3.org/1999/xlink" xmlns:svgjs="http://svgjs.dev/svgjs" width="137" height="136"><svg width="137" height="136" viewBox="0 0 137 136" fill="none" xmlns="http://www.w3.org/2000/svg">
<path d="M68.5076 0.444763C30.6685 0.444763 0 9.98771 0 21.7189V41.291C0 52.1104 25.5293 60.924 58.7294 62.398H59.2297C61.6532 62.2156 63.9206 61.1296 65.5846 59.3542C67.2486 57.5787 68.1886 55.2427 68.219 52.8068C68.2495 50.371 67.3682 48.0121 65.7491 46.1954C64.1299 44.3787 61.8904 43.2361 59.4723 42.9929C36.8234 41.9748 17.6461 37.5984 7.57995 31.5201C18.965 24.6668 41.9626 19.9713 68.5076 19.9713C95.0526 19.9713 118.035 24.6668 129.42 31.5201C122.977 35.4103 112.744 38.6014 100.419 40.6376L99.7521 40.744C97.4797 41.2611 95.4733 42.5907 94.1083 44.4837C92.7433 46.3767 92.1134 48.7035 92.3364 51.0285C92.5594 53.3536 93.6201 55.5174 95.32 57.1151C97.0198 58.7127 99.2423 59.6346 101.571 59.7083C102.13 59.7087 102.688 59.663 103.239 59.5715C123.477 55.9398 137 49.0713 137 41.291V21.7189C137 9.98771 106.332 0.444763 68.5076 0.444763Z" fill="#AD66B0"></path>
<path d="M133.604 23.9222C133.604 26.5662 132.088 29.0887 129.223 31.4137C117.777 24.606 94.8857 19.9561 68.4924 19.9561C42.099 19.9561 19.2227 24.606 7.85277 31.4137C5.01787 29.0887 3.47156 26.5662 3.47156 23.9222C3.47156 12.4949 32.6089 3.21033 68.5682 3.21033C104.527 3.21033 133.604 12.4949 133.604 23.9222Z" fill="#8A528D"></path>
<path d="M137 46.032V65.5586C137 77.3353 106.332 86.8326 68.5076 86.8326C66.8703 86.8326 65.2482 86.8326 63.6413 86.8326H61.625C59.0417 86.6654 56.6305 85.4764 54.9219 83.5271C53.2132 81.5779 52.347 79.0281 52.5139 76.4387C52.6807 73.8494 53.867 71.4325 55.8116 69.7198C57.7562 68.0071 60.3 67.1388 62.8833 67.3061H63.141C64.9147 67.3061 66.6884 67.3061 68.5076 67.3061C95.0222 67.3061 118.035 62.7473 129.405 55.8029C134.256 52.8853 137 49.5574 137 46.032ZM27.7729 63.188L25.7718 62.7473C19.4057 61.3234 13.2783 58.9844 7.57995 55.8029C2.72878 52.8853 0 49.5574 0 46.032V65.5586C0 71.6369 8.04991 77.0466 20.9965 80.9215L22.8763 81.4685C23.426 81.5725 23.9844 81.6234 24.5439 81.6205C26.7743 81.621 28.9334 80.8328 30.6411 79.3947C32.3488 77.9565 33.4956 75.9606 33.8796 73.7582C34.2636 71.5559 33.8602 69.2884 32.7404 67.3549C31.6206 65.4214 29.8562 63.9458 27.7578 63.188H27.7729Z" fill="#4298B4"></path>
<path d="M137 70.3453V89.8415C137 97.5914 123.735 104.369 103.891 108.076L101.571 108.517H101.041C98.6205 108.515 96.2897 107.6 94.5127 105.953C92.7356 104.306 91.6427 102.048 91.4515 99.63C91.2603 97.2117 91.985 94.8098 93.4811 92.9029C94.9772 90.996 97.135 89.7239 99.5247 89.3401C112.35 87.3038 122.795 84.0215 129.405 80.0858C134.256 77.153 137 73.8404 137 70.3453ZM57.7895 91.4067C35.8683 90.3126 17.4036 85.997 7.57995 80.0858C2.72878 77.153 0 73.8404 0 70.3453V89.8415C0 100.342 24.3771 109.064 56.4555 110.842H57.0922H57.2893C59.8161 110.831 62.2394 109.835 64.0453 108.063C65.8512 106.292 66.8977 103.885 66.9627 101.353C67.0278 98.8205 66.1064 96.3627 64.3939 94.5003C62.6814 92.6379 60.3125 91.5173 57.7895 91.3763V91.4067Z" fill="#33A474"></path>
<path d="M137 94.6586V114.14C137 125.901 106.332 135.414 68.5076 135.414C66.7187 135.414 64.945 135.414 63.1865 135.414H60.867C58.4505 135.028 56.2678 133.743 54.7535 131.817C53.2392 129.89 52.5045 127.463 52.6957 125.017C52.8869 122.572 53.9899 120.289 55.7851 118.622C57.5804 116.955 59.9361 116.028 62.383 116.024H62.6255C64.5812 116.024 66.5671 116.024 68.5682 116.024C95.0829 116.024 118.096 111.328 129.466 104.46C134.256 101.451 137 98.1232 137 94.6586ZM25.8476 111.45V111.313C19.4575 109.889 13.3052 107.55 7.57995 104.369C2.72878 101.451 0 98.1232 0 94.6586V114.14C0 120.218 8.0499 125.612 20.9661 129.487C22.1551 129.838 23.4021 129.948 24.6338 129.809C25.8655 129.67 27.0572 129.287 28.139 128.68C29.2207 128.074 30.1708 127.257 30.9333 126.277C31.6959 125.298 32.2557 124.176 32.5797 122.977C32.9038 121.777 32.9857 120.525 32.8206 119.294C32.6554 118.063 32.2466 116.877 31.6182 115.806C30.9897 114.735 30.1542 113.801 29.1606 113.058C28.1671 112.315 27.0356 111.779 25.8325 111.48L25.8476 111.45Z" fill="#E4AE3A"></path>
</svg></svg></g></g><defs><clipPath id="SvgjsClipPath1117"><rect width="1000" height="1000" x="0" y="0" rx="200" ry="200"></rect></clipPath></defs></svg>