<!-- Generator: Adobe Illustrator 25.2.3, SVG Export Plug-In  -->
<svg version="1.1" xmlns="http://www.w3.org/2000/svg" xmlns:xlink="http://www.w3.org/1999/xlink" x="0px" y="0px" width="73px"
	 height="73px" viewBox="0 0 73 73" style="overflow:visible;enable-background:new 0 0 73 73;" xml:space="preserve">
<g>
	<path class="st0" d="M36.6,19.2c-5.2,0-9.4,4.2-9.4,9.4s4.2,9.4,9.4,9.4s9.4-4.2,9.4-9.4S41.8,19.2,36.6,19.2z"/>
	<path class="st0" d="M36.5,0C16.3,0,0,16.3,0,36.5S16.3,73,36.5,73S73,56.7,73,36.5S56.7,0,36.5,0z M57.2,55.2
		C57.2,55.2,57.2,55.3,57.2,55.2c0,1-0.7,1.7-1.6,1.7c-0.9,0-1.6-0.7-1.6-1.6c0,0,0,0,0,0h0c-1.7-8-8.8-14-17.3-14
		c-8.5,0-15.6,6-17.2,14h0c0,0,0,0,0,0c0,0.9-0.7,1.6-1.6,1.6c-0.9,0-1.6-0.7-1.6-1.6c0,0,0,0,0,0c0,0,0,0,0,0c0-0.2,0-0.3,0.1-0.5
		c1.5-7.3,6.7-13.2,13.6-15.6C26.3,36.9,24,33,24,28.6c0-7,5.6-12.6,12.6-12.6s12.6,5.6,12.6,12.6c0,4.4-2.3,8.3-5.7,10.5
		c6.9,2.4,12.1,8.3,13.6,15.6C57.1,54.9,57.2,55.1,57.2,55.2C57.2,55.2,57.2,55.2,57.2,55.2z"/>
</g>
</svg>
