<svg id="Layer_1" data-name="Layer 1" xmlns="http://www.w3.org/2000/svg" viewBox="0 0 35 32.8"><defs><style>.cls-1{fill:#51596a;}</style></defs><path class="cls-1" d="M530.15,490.91a1.2,1.2,0,0,1-.81-1.31c0-1.49,0-3,0-4.47a3.09,3.09,0,0,1,2.43-3.13,4.53,4.53,0,0,1,.82-.06l3.19,0A4.23,4.23,0,0,1,533,480a4,4,0,0,1-.45-3.38,4.1,4.1,0,0,1,8,.66,4.19,4.19,0,0,1-3.41,4.65c1,0,2.09,0,3.14,0a3.13,3.13,0,0,1,3.3,3.32c-.06,1.45-.06,2.91,0,4.37a1.21,1.21,0,0,1-.78,1.29Zm-21.6-.75a1.6,1.6,0,0,0,.75.75H522a1.3,1.3,0,0,0,.76-1.37c0-1.45,0-2.89,0-4.34a3.08,3.08,0,0,0-3.24-3.27h-3.12a8.88,8.88,0,0,0,1.42-.64,4.65,4.65,0,0,0,1.2-1.14,4.24,4.24,0,0,0,.64-1.48,4.63,4.63,0,0,0,0-1.66,4.09,4.09,0,0,0-7.94-.33,4,4,0,0,0,.47,3.34,4.28,4.28,0,0,0,2.8,1.89c-1.11,0-2.2,0-3.29,0a2.92,2.92,0,0,0-2.61,1.36,8.37,8.37,0,0,0-.55,1.34Zm0-26.16a1.06,1.06,0,0,1,.06.19,5.3,5.3,0,0,0,5.31,4.52h3.33c0,1,0,2,0,3,0,.29,0,.56.35.68a.64.64,0,0,0,.73-.24l5.1-4.94a5.29,5.29,0,0,0-3.67-9.07h-5.94a5.3,5.3,0,0,0-5,3.76c-.09.31-.15.63-.23.95Zm4.12.47a1,1,0,1,1,1-1A1,1,0,0,1,512.67,464.47Zm4.13,0a1,1,0,0,1-1-1,1,1,0,0,1,1-1,1,1,0,1,1,0,2Zm3.07-1a1,1,0,0,1,1-1,1,1,0,1,1-1,1Zm17.8,5.26a9.75,9.75,0,0,0,1.53-.09,5.29,5.29,0,0,0-.9-10.5h-5.95a5.29,5.29,0,0,0-3.65,9.1l2.84,2.75,2.28,2.22a.6.6,0,0,0,.68.18.59.59,0,0,0,.34-.62v-3C535.83,468.71,536.75,468.72,537.67,468.71Zm-6.47-4.24a1,1,0,1,1,1-1A1,1,0,0,1,531.2,464.47Zm3.09-1a1,1,0,1,1,2,0,1,1,0,0,1-1,1A1,1,0,0,1,534.29,463.44Zm6.14,0a1,1,0,1,1-1-1A1,1,0,0,1,540.43,463.46Z" transform="translate(-508.55 -458.12)"/></svg>