<svg width="27" height="35" viewBox="0 0 27 35" fill="none" xmlns="http://www.w3.org/2000/svg">
<path fill-rule="evenodd" clip-rule="evenodd" d="M14.6033 24.2662C39.1784 7.51505 20.881 -5.30501 13.5008 2.19058C6.11838 -5.30501 -12.179 7.51505 12.3983 24.2662L11.8718 25.3062C11.8387 25.3716 11.8189 25.4428 11.8137 25.5157C11.8084 25.5886 11.8178 25.6618 11.8412 25.7311C11.8884 25.8711 11.9901 25.9869 12.1238 26.0529C12.2574 26.1189 12.4122 26.1298 12.554 26.0831C12.6957 26.0364 12.8129 25.936 12.8798 25.804L12.9698 25.6262C12.99 26.004 13.0238 26.3262 13.0845 26.6262C13.2375 27.3907 13.5525 28.0085 14.0926 29.0751L14.1218 29.1374C14.5988 30.0752 14.5313 31.0263 14.2343 31.9063C13.9306 32.7996 13.4108 33.5752 13.0328 34.1352C12.9498 34.2578 12.9196 34.4079 12.9487 34.5525C12.9778 34.6971 13.0639 34.8244 13.188 34.9063C13.3122 34.9882 13.4641 35.0181 13.6106 34.9893C13.757 34.9606 13.8859 34.8755 13.9688 34.7529L13.9778 34.7374C14.3513 34.1863 14.9476 33.3018 15.3008 32.2596C15.6608 31.1952 15.7778 29.924 15.1298 28.6396C14.5493 27.4951 14.3086 27.0129 14.1871 26.4085C14.146 26.1963 14.1182 25.9818 14.1038 25.7662L14.1218 25.804C14.1886 25.936 14.3058 26.0364 14.4476 26.0831C14.5894 26.1298 14.7442 26.1189 14.8778 26.0529C15.0115 25.9869 15.1131 25.8711 15.1604 25.7311C15.2077 25.5911 15.1967 25.4383 15.1298 25.3062L14.6011 24.2662H14.6033ZM10.6342 2.81947C8.00842 1.46391 4.33409 2.50391 2.86255 5.3417C2.32929 6.3706 2.05254 7.74172 2.40804 9.45283C2.5318 10.0528 3.45882 9.89061 3.59382 9.29506C4.23508 6.50393 6.24213 3.82392 10.3192 3.67725C10.8457 3.65947 11.1022 3.05947 10.6342 2.81947V2.81947Z" fill="#51596A"/>
</svg>
