<svg width="35" height="35" viewBox="0 0 35 35" fill="none" xmlns="http://www.w3.org/2000/svg">
<path d="M19.6875 2.1875C19.6875 1.60734 19.457 1.05094 19.0468 0.640704C18.6366 0.230468 18.0802 0 17.5 0C16.9198 0 16.3634 0.230468 15.9532 0.640704C15.543 1.05094 15.3125 1.60734 15.3125 2.1875V4.375C15.3125 4.95516 15.543 5.51156 15.9532 5.9218C16.3634 6.33203 16.9198 6.5625 17.5 6.5625C18.0802 6.5625 18.6366 6.33203 19.0468 5.9218C19.457 5.51156 19.6875 4.95516 19.6875 4.375V2.1875ZM29.8747 8.21844C30.2732 7.80587 30.4936 7.2533 30.4887 6.67975C30.4837 6.10619 30.2536 5.55754 29.848 5.15196C29.4425 4.74638 28.8938 4.51632 28.3203 4.51134C27.7467 4.50635 27.1941 4.72684 26.7816 5.12531L25.235 6.67188C24.8365 7.08444 24.616 7.63701 24.621 8.21057C24.626 8.78412 24.8561 9.33277 25.2616 9.73835C25.6672 10.1439 26.2159 10.374 26.7894 10.379C27.363 10.384 27.9156 10.1635 28.3281 9.765L29.8747 8.21844ZM35 17.5C35 18.0802 34.7695 18.6366 34.3593 19.0468C33.9491 19.457 33.3927 19.6875 32.8125 19.6875H30.625C30.0448 19.6875 29.4884 19.457 29.0782 19.0468C28.668 18.6366 28.4375 18.0802 28.4375 17.5C28.4375 16.9198 28.668 16.3634 29.0782 15.9532C29.4884 15.543 30.0448 15.3125 30.625 15.3125H32.8125C33.3927 15.3125 33.9491 15.543 34.3593 15.9532C34.7695 16.3634 35 16.9198 35 17.5ZM6.67188 9.765C6.87367 9.97393 7.11504 10.1406 7.38193 10.2552C7.64881 10.3699 7.93585 10.4302 8.22631 10.4327C8.51676 10.4353 8.80481 10.3799 9.07365 10.2699C9.34249 10.1599 9.58672 9.9975 9.79211 9.79211C9.9975 9.58672 10.1599 9.34249 10.2699 9.07365C10.3799 8.80481 10.4353 8.51676 10.4327 8.22631C10.4302 7.93585 10.3699 7.64881 10.2552 7.38193C10.1406 7.11504 9.97393 6.87367 9.765 6.67188L8.21844 5.12531C7.80587 4.72684 7.2533 4.50635 6.67975 4.51134C6.10619 4.51632 5.55754 4.74638 5.15196 5.15196C4.74638 5.55754 4.51632 6.10619 4.51134 6.67975C4.50635 7.2533 4.72684 7.80587 5.12531 8.21844L6.67188 9.765V9.765ZM6.5625 17.5C6.5625 18.0802 6.33203 18.6366 5.9218 19.0468C5.51156 19.457 4.95516 19.6875 4.375 19.6875H2.1875C1.60734 19.6875 1.05094 19.457 0.640704 19.0468C0.230468 18.6366 0 18.0802 0 17.5C0 16.9198 0.230468 16.3634 0.640704 15.9532C1.05094 15.543 1.60734 15.3125 2.1875 15.3125H4.375C4.95516 15.3125 5.51156 15.543 5.9218 15.9532C6.33203 16.3634 6.5625 16.9198 6.5625 17.5ZM13.125 30.625V28.4375H21.875V30.625C21.875 31.7853 21.4141 32.8981 20.5936 33.7186C19.7731 34.5391 18.6603 35 17.5 35C16.3397 35 15.2269 34.5391 14.4064 33.7186C13.5859 32.8981 13.125 31.7853 13.125 30.625V30.625ZM21.875 26.25C21.9078 25.5062 22.33 24.8369 22.9184 24.3709C24.3462 23.2449 25.3877 21.7021 25.8981 19.9569C26.4086 18.2117 26.3627 16.3508 25.7668 14.6329C25.1709 12.915 24.0546 11.4254 22.573 10.3712C21.0915 9.31697 19.3183 8.75049 17.5 8.75049C15.6817 8.75049 13.9085 9.31697 12.427 10.3712C10.9454 11.4254 9.82914 12.915 9.23323 14.6329C8.63732 16.3508 8.59141 18.2117 9.10187 19.9569C9.61234 21.7021 10.6538 23.2449 12.0816 24.3709C12.6722 24.8369 13.0922 25.5062 13.1228 26.25H21.8772H21.875Z" fill="#51596A"/>
</svg>
