<svg id="Layer_1" data-name="Layer 1" xmlns="http://www.w3.org/2000/svg" viewBox="0 0 35 21.89"><defs><style>.cls-1{fill:#51596a;}</style></defs><path class="cls-1" d="M543.53,545.65c-7.65-14.78-27.43-14.4-35,0h0c7.55,14.4,27.33,14.78,35,0Zm-20.81-6.81a3.32,3.32,0,1,1-3.32,3.32A3.32,3.32,0,0,1,522.72,538.84Zm-10.29,6.81h0a15.14,15.14,0,0,1,5.65-5.59,8.79,8.79,0,0,0-.71,3.45A8.7,8.7,0,1,0,534,540a15.06,15.06,0,0,1,5.67,5.65h0C533.74,556,518.31,555.76,512.43,545.65Z" transform="translate(-508.55 -534.7)"/></svg>