<svg id="Layer_1" data-name="Layer 1" xmlns="http://www.w3.org/2000/svg" viewBox="0 0 35.09 30.13"><defs><style>.cls-1{fill:#51596a;}</style></defs><path class="cls-1" d="M498.09,534.3H476.71v-1.09a5.85,5.85,0,0,0-3.69-5.35,8.08,8.08,0,0,0-3.16-.41V515.81h.89a5.82,5.82,0,0,0,6-5.95V509h4.18v-2.19a2.41,2.41,0,0,1,2.58-2.59h7.81a2.41,2.41,0,0,1,2.63,2.61V509h4.2a6,6,0,0,0,6.81,6.83v11.65h-1.05a5.75,5.75,0,0,0-5.57,4.33A16,16,0,0,0,498.09,534.3Zm-3.52-13.7a2,2,0,0,0-.38.09L490.5,522a1,1,0,0,0-.65,1.4c.18.52.37,1,.57,1.57l1.71,4.72a1,1,0,0,0,1.26.71c1.35-.46,2.68-1,4-1.46a1,1,0,0,0,.56-1.25c0-.14-.09-.28-.14-.42q-1.08-2.92-2.14-5.87A1.08,1.08,0,0,0,494.57,520.6ZM483.38,517a3.6,3.6,0,0,0,.42.76c.94,1,1.89,1.92,2.85,2.86a1,1,0,0,0,1.5,0c1-.94,1.91-1.89,2.85-2.86a1,1,0,0,0,0-1.49c-.95-1-1.9-1.92-2.86-2.86a1,1,0,0,0-1.5,0c-1,.94-1.91,1.89-2.85,2.86A3.59,3.59,0,0,0,483.38,517Zm-3.51,9.78a3.08,3.08,0,1,0-3.09-3A3.09,3.09,0,0,0,479.87,526.77ZM491.82,509a.29.29,0,0,0,0-.09v-2c0-.55-.06-.61-.6-.61h-7.7c-.09,0-.2,0-.27,0s-.31.18-.31.29c0,.8,0,1.61,0,2.42Zm-22,4.81c.41,0,.82,0,1.23,0A3.87,3.87,0,0,0,474.6,509c-.83,0-1.66,0-2.5,0a2.17,2.17,0,0,0-1.76,1,6.59,6.59,0,0,0-.48,1Zm0,18.56a2.52,2.52,0,0,0,1,1.54,6.31,6.31,0,0,0,1,.44h2.81c0-.37,0-.75,0-1.13a3.69,3.69,0,0,0-2.82-3.52,12.87,12.87,0,0,0-2-.14Zm33.09,2,.19-.07a2.23,2.23,0,0,0,1.74-1.94,25.71,25.71,0,0,0,0-2.78h-1.09a3.7,3.7,0,0,0-3.52,2.82,12.87,12.87,0,0,0-.15,2Zm2-20.59c0-.84,0-1.69,0-2.53a2.34,2.34,0,0,0-2.15-2.19c-.86-.06-1.73,0-2.61,0C499.78,512.53,502.36,514.13,504.93,513.71Zm-11.18,14.44,1.93-.71-1.64-4.5-1.93.71ZM486.05,517l1.39,1.38,1.35-1.35-1.38-1.39Zm-6.25,7.72a1,1,0,0,0,1.09-1,1,1,0,0,0-1-1.06,1,1,0,0,0-.1,2.05Z" transform="translate(-469.86 -504.17)"/></svg>