<svg width="35" height="28" viewBox="0 0 35 28" fill="none" xmlns="http://www.w3.org/2000/svg">
<path d="M30.3381 8.44922C29.3732 6.52148 26.6077 6.51437 25.6357 8.44922C20.8714 17.9813 21.0303 17.5219 21.0303 18.375C21.0303 20.7884 24.1654 22.75 28.0398 22.75C31.9142 22.75 35 20.7878 35 18.375C34.9491 17.4945 35.075 17.8992 30.3381 8.44922ZM23.9967 17.5L27.9374 9.625L31.8895 17.5H23.9967ZM13.9698 18.375C13.9698 17.4934 14.0451 17.8965 9.30849 8.44922C8.34359 6.52148 5.57811 6.51437 4.60609 8.44922C-0.158189 17.9813 0.000620348 17.5219 0.000620348 18.375C0.000620348 20.7884 3.13573 22.75 6.96085 22.75C10.786 22.75 13.9698 20.7867 13.9698 18.375ZM6.95482 9.625L10.9086 17.5H3.01526L6.95482 9.625ZM27.0634 24.5H19.2269V8.38359C20.5139 7.82031 21.4777 6.66094 21.7679 5.25H27.9888C28.9565 5.25 29.6919 4.46633 29.6919 3.5C29.6919 2.53367 28.9072 1.75 27.9888 1.75H20.9574C20.1568 0.690156 18.9039 0 17.4735 0C16.0431 0 14.742 0.690156 13.9917 1.75H6.9603C5.99102 1.75 5.20792 2.53367 5.20792 3.5C5.20792 4.46633 5.99102 5.25 6.91102 5.25H13.132C13.4195 6.6582 14.3844 7.82031 15.6713 8.38086V24.5H7.83649C6.38475 24.5 5.20737 25.6752 5.20737 27.125C5.20737 27.6082 5.59974 28 6.08356 28H28.8645C29.3484 28 29.7407 27.6082 29.7407 27.125C29.7412 25.6758 28.5638 24.5 27.0634 24.5Z" fill="#51596A"/>
</svg>
