<svg width="35" height="30" viewBox="0 0 35 30" fill="none" xmlns="http://www.w3.org/2000/svg">
<path d="M22.8846 9.13044V7.17391H20.8654C20.1513 7.17391 19.4665 7.44876 18.9616 7.93798C18.4567 8.42721 18.1731 9.09074 18.1731 9.78261V20.2174C18.1731 20.9093 18.4567 21.5728 18.9616 22.062C19.4665 22.5512 20.1513 22.8261 20.8654 22.8261H22.8846V20.8696C22.8846 20.1777 23.1683 19.5142 23.6732 19.0249C24.1781 18.5357 24.8629 18.2609 25.5769 18.2609H32.3077C33.0217 18.2609 33.7065 18.5357 34.2114 19.0249C34.7163 19.5142 35 20.1777 35 20.8696V27.3913C35 28.0832 34.7163 28.7467 34.2114 29.2359C33.7065 29.7252 33.0217 30 32.3077 30H25.5769C24.8629 30 24.1781 29.7252 23.6732 29.2359C23.1683 28.7467 22.8846 28.0832 22.8846 27.3913V25.4348H20.8654C19.4387 25.4305 18.0716 24.8794 17.0628 23.9019C16.0539 22.9244 15.4852 21.5998 15.4808 20.2174V16.3043H10.7692V17.6087C10.7692 18.3006 10.4856 18.9641 9.98067 19.4533C9.47577 19.9425 8.79097 20.2174 8.07692 20.2174H2.69231C1.97826 20.2174 1.29346 19.9425 0.788559 19.4533C0.283653 18.9641 0 18.3006 0 17.6087V12.3913C0 11.6994 0.283653 11.0359 0.788559 10.5467C1.29346 10.0575 1.97826 9.78261 2.69231 9.78261H8.07692C8.79097 9.78261 9.47577 10.0575 9.98067 10.5467C10.4856 11.0359 10.7692 11.6994 10.7692 12.3913V13.6957H15.4808V9.78261C15.4852 8.40019 16.0539 7.07563 17.0628 6.09811C18.0716 5.12059 19.4387 4.56952 20.8654 4.56522H22.8846V2.6087C22.8846 1.91683 23.1683 1.25329 23.6732 0.764069C24.1781 0.274844 24.8629 0 25.5769 0H32.3077C33.0217 0 33.7065 0.274844 34.2114 0.764069C34.7163 1.25329 35 1.91683 35 2.6087V9.13044C35 9.8223 34.7163 10.4858 34.2114 10.9751C33.7065 11.4643 33.0217 11.7391 32.3077 11.7391H25.5769C24.8629 11.7391 24.1781 11.4643 23.6732 10.9751C23.1683 10.4858 22.8846 9.8223 22.8846 9.13044Z" fill="#51596A"/>
</svg>
