<svg width="34" height="35" viewBox="0 0 34 35" fill="none" xmlns="http://www.w3.org/2000/svg">
<path d="M33.5657 21.7056L30.5153 19.9697C30.8232 18.3327 30.8232 16.6532 30.5153 15.0161L33.5657 13.2803C33.9166 13.0827 34.0741 12.6734 33.9596 12.2924C33.1647 9.78027 31.8114 7.5081 30.0427 5.61698C29.7706 5.32767 29.3267 5.2571 28.9829 5.45468L25.9325 7.19056C24.6508 6.10387 23.1757 5.26416 21.5789 4.71376V1.24905C21.5789 0.853893 21.2996 0.508129 20.9058 0.423452C18.2779 -0.155175 15.5855 -0.12695 13.0864 0.423452C12.6926 0.508129 12.4133 0.853893 12.4133 1.24905V4.72081C10.8237 5.27827 9.34859 6.11799 8.05969 7.19762L5.01643 5.46174C4.66557 5.26416 4.22877 5.32767 3.95667 5.62404C2.188 7.5081 0.834648 9.78027 0.0398215 12.2994C-0.0819087 12.6805 0.082785 13.0897 0.433654 13.2873L3.48407 15.0232C3.17616 16.6603 3.17616 18.3397 3.48407 19.9768L0.433654 21.7127C0.082785 21.9103 -0.0747481 22.3195 0.0398215 22.7006C0.834648 25.2127 2.188 27.4848 3.95667 29.376C4.22877 29.6653 4.67273 29.7358 5.01643 29.5383L8.06685 27.8024C9.3486 28.8891 10.8237 29.7288 12.4205 30.2792V33.7509C12.4205 34.1461 12.6998 34.4919 13.0936 34.5765C15.7215 35.1552 18.4139 35.1269 20.913 34.5765C21.3068 34.4919 21.5861 34.1461 21.5861 33.7509V30.2792C23.1757 29.7217 24.6508 28.882 25.9397 27.8024L28.9901 29.5383C29.341 29.7358 29.7778 29.6723 30.0499 29.376C31.8185 27.4919 33.1719 25.2197 33.9667 22.7006C34.0741 22.3125 33.9166 21.9032 33.5657 21.7056V21.7056ZM16.9961 23.1381C13.8383 23.1381 11.2676 20.6048 11.2676 17.4929C11.2676 14.3811 13.8383 11.8478 16.9961 11.8478C20.1539 11.8478 22.7246 14.3811 22.7246 17.4929C22.7246 20.6048 20.1539 23.1381 16.9961 23.1381Z" fill="#51596A"/>
</svg>
